<?xml version="1.0" encoding="UTF-8" standalone="no"?>
<!-- Created with Inkscape (http://www.inkscape.org/) -->

<svg
   xmlns:dc="http://purl.org/dc/elements/1.1/"
   xmlns:cc="http://creativecommons.org/ns#"
   xmlns:rdf="http://www.w3.org/1999/02/22-rdf-syntax-ns#"
   xmlns:svg="http://www.w3.org/2000/svg"
   xmlns="http://www.w3.org/2000/svg"
   xmlns:sodipodi="http://sodipodi.sourceforge.net/DTD/sodipodi-0.dtd"
   xmlns:inkscape="http://www.inkscape.org/namespaces/inkscape"
   id="svg4188"
   version="1.1"
   inkscape:version="0.48.5 r10040"
   width="40"
   height="40"
   xml:space="preserve"
   sodipodi:docname="icons.svg"
   inkscape:export-filename="/home/alan/source/vecna/res/drawable-ldpi/ic_menu_lock.png"
   inkscape:export-xdpi="93.910004"
   inkscape:export-ydpi="93.910004"><metadata
     id="metadata4194"><rdf:RDF><cc:Work
         rdf:about=""><dc:format>image/svg+xml</dc:format><dc:type
           rdf:resource="http://purl.org/dc/dcmitype/StillImage" /><dc:title></dc:title></cc:Work></rdf:RDF></metadata><defs
     id="defs4192"><clipPath
       clipPathUnits="userSpaceOnUse"
       id="clipPath4202"><path
         d="M 0,32 32,32 32,0 0,0 0,32 z"
         id="path4204" /></clipPath><clipPath
       clipPathUnits="userSpaceOnUse"
       id="clipPath4232"><path
         d="M 0,32 32,32 32,0 0,0 0,32 z"
         id="path4234" /></clipPath><clipPath
       clipPathUnits="userSpaceOnUse"
       id="clipPath4242"><path
         d="M 0,32 32,32 32,0 0,0 0,32 z"
         id="path4244" /></clipPath><clipPath
       clipPathUnits="userSpaceOnUse"
       id="clipPath4274"><path
         d="M 0,32 32,32 32,0 0,0 0,32 z"
         id="path4276" /></clipPath><clipPath
       clipPathUnits="userSpaceOnUse"
       id="clipPath4460"><path
         d="M 0,32 32,32 32,0 0,0 0,32 z"
         id="path4462" /></clipPath><clipPath
       clipPathUnits="userSpaceOnUse"
       id="clipPath4608"><path
         d="M 0,32 32,32 32,0 0,0 0,32 z"
         id="path4610" /></clipPath><clipPath
       clipPathUnits="userSpaceOnUse"
       id="clipPath4718"><path
         d="M 0,32 32,32 32,0 0,0 0,32 z"
         id="path4720" /></clipPath><clipPath
       clipPathUnits="userSpaceOnUse"
       id="clipPath4768"><path
         d="M 0,32 32,32 32,0 0,0 0,32 z"
         id="path4770" /></clipPath><clipPath
       clipPathUnits="userSpaceOnUse"
       id="clipPath4846"><path
         d="M 0,32 32,32 32,0 0,0 0,32 z"
         id="path4848" /></clipPath><clipPath
       clipPathUnits="userSpaceOnUse"
       id="clipPath4944"><path
         d="M 0,32 32,32 32,0 0,0 0,32 z"
         id="path4946" /></clipPath><clipPath
       clipPathUnits="userSpaceOnUse"
       id="clipPath5024"><path
         d="M 0,32 32,32 32,0 0,0 0,32 z"
         id="path5026" /></clipPath><clipPath
       clipPathUnits="userSpaceOnUse"
       id="clipPath5082"><path
         d="M 0,32 32,32 32,0 0,0 0,32 z"
         id="path5084" /></clipPath><clipPath
       clipPathUnits="userSpaceOnUse"
       id="clipPath5166"><path
         d="m 5.38916,28.1929 21.80814,0 0,-24.32864 -21.80814,0 0,24.32864 z"
         id="path5168" /></clipPath></defs><sodipodi:namedview
     pagecolor="#000000"
     bordercolor="#666666"
     borderopacity="1"
     objecttolerance="10"
     gridtolerance="10"
     guidetolerance="10"
     inkscape:pageopacity="0"
     inkscape:pageshadow="2"
     inkscape:window-width="1270"
     inkscape:window-height="1050"
     id="namedview4190"
     showgrid="false"
     inkscape:zoom="6.1544732"
     inkscape:cx="23.367544"
     inkscape:cy="9.9470802"
     inkscape:window-x="2562"
     inkscape:window-y="22"
     inkscape:window-maximized="0"
     inkscape:current-layer="g4196" /><g
     id="g4196"
     inkscape:groupmode="layer"
     inkscape:label="Action_Bar_Icons"
     transform="matrix(1.25,0,0,-1.25,0,40)"><path
       inkscape:connector-curvature="0"
       id="lock"
       style="fill:#ffffff;fill-opacity:0.8;fill-rule:nonzero;stroke:none"
       d="m 9.3075002,20.461 c -1.231,0 -2.2290001,0.998 -2.2290001,2.23 0,1.232 0.9980001,2.23 2.2290001,2.23 1.2329998,0 2.2309998,-0.998 2.2309998,-2.23 0,-1.232 -0.998,-2.23 -2.2309998,-2.23 M 18.4695,16.876 c 0.555,1.074 0.876,2.292 0.876,3.585 0,4.311 -3.496,7.807 -7.807,7.807 -4.3099998,0 -7.8059999,-3.496 -7.8059999,-7.807 0,-4.312 3.4960001,-7.808 7.8059999,-7.808 1.294,0 2.511,0.321 3.584,0.877 l 4.223,-4.2210002 2.231,0 0,-2.232 2.23,0 0,-2.23 1.116,-1.115 3.345,0 0,3.345 -9.798,9.7990002 z"
       inkscape:label="#path4444" /><path
       inkscape:connector-curvature="0"
       id="search"
       style="fill:#ffffff;fill-opacity:0.8;fill-rule:nonzero;stroke:none"
       d="m 8.6370139,14.784736 c -2.368,2.369 -2.368,6.21 0,8.578 2.3700001,2.37 6.2070001,2.368 8.5780001,0 2.367,-2.368 2.367,-6.207 0,-8.578 -2.371,-2.368 -6.21,-2.368 -8.5780001,0 m 17.8610001,-6.1779995 -4.054,4.0559995 c -0.358,0.356 -1.003,0.322 -1.651,-0.015 l -1.769,1.768 c 2.304,3.011 2.088,7.334 -0.667,10.089 -3,2.999 -7.863,2.999 -10.8630001,0 -2.998,-3 -2.998,-7.863 0,-10.862 2.7560001,-2.754 7.0790001,-2.972 10.0900001,-0.667 l 1.769,-1.767 c -0.337,-0.65 -0.372,-1.2949995 -0.016,-1.6519995 l 4.056,-4.055 c 0.512,-0.512 1.624,-0.231 2.48,0.627 0.857,0.855 1.138,1.967 0.625,2.478"
       inkscape:label="#path5160" /></g></svg>